<svg width="178" height="172" viewBox="0 0 178 172" fill="none" xmlns="http://www.w3.org/2000/svg">
<g filter="url(#filter0_d)">
<g clip-path="url(#clip0)">
<path d="M94.5271 5.78186C93.9165 5.74972 93.3745 6.20991 93.3335 6.82642C93.2926 7.44585 93.7616 7.97909 94.3796 8.02146C132.831 10.5459 162.953 42.7418 162.953 81.3147C162.953 121.82 129.998 154.774 89.4928 154.774C48.9857 154.774 16.0316 121.82 16.0316 81.3147C16.0316 62.8018 22.9403 45.1173 35.4853 31.5205C47.9587 18.0025 64.8806 9.69568 83.1348 8.13103C83.7528 8.07843 84.2101 7.53497 84.1575 6.917C84.1049 6.29903 83.5585 5.84176 82.9434 5.89581C64.1296 7.50721 46.6891 16.0682 33.8373 29.9996C20.9082 44.0128 13.7891 62.2364 13.7891 81.3147C13.7891 123.059 47.7497 157.018 89.4928 157.018C131.236 157.018 165.198 123.059 165.198 81.3147C165.198 41.5629 134.155 8.38523 94.5271 5.78186Z" fill="#3A312A"/>
<path d="M58.1447 83.5166H48.1286V77.0082C45.3601 78.9279 42.4938 80.0615 39.7122 80.0615C37.0445 80.0615 34.2278 78.9176 31.4711 76.9746H31.3001V83.5166H21.2797C12.9071 83.5166 6.12109 90.3026 6.12109 98.6752V112.411H73.3018V98.6737C73.3018 90.3026 66.5158 83.5166 58.1447 83.5166Z" fill="#FFD15C"/>
<path d="M58.1447 83.5117H55.7487L55.8101 83.557L45.3937 97.373L40.0175 93.3218L34.6427 97.373L24.2249 83.557L24.2862 83.5117H21.2797C12.9071 83.5117 6.12109 90.2977 6.12109 98.6703V112.412H73.3018V98.6703C73.3018 90.2977 66.5158 83.5117 58.1447 83.5117Z" fill="#8AC6DD"/>
<path fill-rule="evenodd" clip-rule="evenodd" d="M13.6823 39.9766C10.3893 39.9766 7.71875 42.6471 7.71875 45.9401C7.71875 49.2345 10.3893 51.905 13.6823 51.905C16.9766 51.905 19.6472 49.2345 19.6472 45.9401C19.6472 42.6471 16.9766 39.9766 13.6823 39.9766Z" fill="#FFD15C"/>
<path fill-rule="evenodd" clip-rule="evenodd" d="M65.7423 39.9766C62.4479 39.9766 59.7773 42.6471 59.7773 45.9401C59.7773 49.2345 62.4479 51.905 65.7423 51.905C69.0352 51.905 71.7058 49.2345 71.7058 45.9401C71.7058 42.6471 69.0352 39.9766 65.7423 39.9766Z" fill="#FFD15C"/>
<path d="M39.7133 16.6045C25.1113 16.6045 13.2734 28.4424 13.2734 43.0458C13.2734 57.6492 27.8988 80.0627 39.7133 80.0627C52.0917 80.0627 66.1546 57.6477 66.1546 43.0458C66.1546 28.4438 54.3167 16.6045 39.7133 16.6045Z" fill="#FFD15C"/>
<path d="M67.3859 36.9333C67.3859 22.4832 55.1332 10.7695 40.0184 10.7695C24.9051 10.7695 12.6523 22.4832 12.6523 36.9333C12.6523 38.4628 12.9285 39.6024 13.4427 41.0268C13.6852 41.6973 17.6034 39.5542 17.938 39.3189C19.6064 38.1444 20.9694 36.552 21.9891 34.7915C22.4099 34.0596 22.7605 33.3145 23.0439 32.5695C23.9453 30.1925 26.3967 23.5789 28.8862 24.0976C32.2229 24.793 36.0052 25.1859 40.0184 25.1859C44.0316 25.1859 47.8139 24.7944 51.1507 24.0976C53.6386 23.5789 56.0901 30.1925 56.9929 32.5695C57.2749 33.3145 57.627 34.0596 58.0477 34.7915C59.7321 37.7032 62.5751 40.476 66.0346 40.98C66.0433 40.8135 66.2537 40.7565 66.4115 40.6995C67.5437 40.2875 67.3859 37.8419 67.3859 36.9333Z" fill="#1F1F26"/>
<path d="M24.2305 83.555L29.6286 79.4863L40.0435 93.3038L34.6454 97.3724L24.2305 83.555Z" fill="#87796F"/>
<path d="M39.998 93.3087L50.413 79.4912L55.8111 83.5599L45.3962 97.3773L39.998 93.3087Z" fill="#87796F"/>
<path d="M61.331 100.434C60.7101 100.434 60.209 100.936 60.209 101.556V112.412C60.209 113.031 60.7101 113.534 61.331 113.534C61.9504 113.534 62.453 113.031 62.453 112.412V101.556C62.453 100.936 61.9504 100.434 61.331 100.434Z" fill="#3A312A"/>
<path d="M39.5231 1.27168C20.8846 12.2374 10.0664 -8.84085 10.0664 0.770581C10.0664 3.80931 11.2892 6.84073 12.8977 9.5975L17.3462 15.9043C21.8342 21.5552 27.2031 27.58 33.6867 29.4237C44.1308 32.3938 62.6174 28.6889 62.6174 13.6574C62.6159 4.04306 54.5604 -7.57423 39.5231 1.27168Z" fill="#1F1F26"/>
<path d="M157.379 83.5166H147.363V77.0082C144.594 78.9279 141.728 80.0615 138.947 80.0615C136.279 80.0615 133.462 78.9162 130.704 76.9746H130.535V83.5166H120.514C112.141 83.5166 105.355 90.3026 105.355 98.6752V112.411H172.536V98.6752C172.536 90.3026 165.75 83.5166 157.379 83.5166Z" fill="#FFD15C"/>
<path d="M157.378 83.5117H154.982L155.045 83.557L144.627 97.373L139.25 93.3233L133.876 97.373L123.458 83.557L123.521 83.5117H120.513C112.14 83.5117 105.355 90.2977 105.355 98.6703V112.412H172.535V98.6703C172.536 90.2977 165.749 83.5117 157.378 83.5117Z" fill="#D7E057"/>
<path fill-rule="evenodd" clip-rule="evenodd" d="M112.918 39.9766C109.624 39.9766 106.953 42.6471 106.953 45.9401C106.953 49.2345 109.624 51.905 112.918 51.905C116.212 51.905 118.883 49.2345 118.883 45.9401C118.883 42.6471 116.212 39.9766 112.918 39.9766Z" fill="#FFD15C"/>
<path fill-rule="evenodd" clip-rule="evenodd" d="M164.977 39.9766C161.682 39.9766 159.012 42.6471 159.012 45.9401C159.012 49.2345 161.682 51.905 164.977 51.905C168.27 51.905 170.94 49.2345 170.94 45.9401C170.94 42.6471 168.27 39.9766 164.977 39.9766Z" fill="#FFD15C"/>
<path d="M138.946 16.6045C124.344 16.6045 112.506 28.4424 112.506 43.0458C112.506 57.6492 127.131 80.0627 138.946 80.0627C151.323 80.0627 165.387 57.6477 165.387 43.0458C165.387 28.4438 153.549 16.6045 138.946 16.6045Z" fill="#FFD15C"/>
<path d="M166.618 36.9333C166.618 22.4832 154.366 10.7695 139.252 10.7695C124.138 10.7695 111.885 22.4832 111.885 36.9333C111.885 38.4628 112.162 39.6024 112.675 41.0268C112.918 41.6973 116.837 39.5542 117.17 39.3189C118.839 38.1444 120.203 36.552 121.222 34.7915C121.642 34.0596 121.994 33.3145 122.278 32.5695C123.179 30.1925 125.631 23.5789 128.119 24.0976C131.457 24.793 135.239 25.1859 139.251 25.1859C143.264 25.1859 147.046 24.7944 150.383 24.0976C152.873 23.5789 155.324 30.1925 156.225 32.5695C156.509 33.3145 156.859 34.0596 157.282 34.7915C158.965 37.7032 161.808 40.476 165.267 40.98C165.276 40.8135 165.488 40.7565 165.644 40.6995C166.778 40.2875 166.618 37.8419 166.618 36.9333Z" fill="#1F1F26"/>
<path d="M123.465 83.5521L128.863 79.4834L139.278 93.3023L133.88 97.371L123.465 83.5521Z" fill="#87796F"/>
<path d="M139.234 93.3087L149.649 79.4912L155.047 83.5599L144.632 97.3773L139.234 93.3087Z" fill="#87796F"/>
<path fill-rule="evenodd" clip-rule="evenodd" d="M139.721 1.67773C123.955 1.67773 118.277 7.68506 118.277 15.0963C118.277 22.5062 123.955 28.5135 139.721 28.5135C155.487 28.5135 168.267 15.0963 168.267 15.0963C168.267 15.0963 155.487 1.67773 139.721 1.67773Z" fill="#1F1F26"/>
<path d="M60.7441 90.666H117.492V155.617H60.7441V90.666Z" fill="#1F1F26"/>
<path d="M107.926 142.845H97.9113V136.336C95.1414 138.256 92.275 139.39 89.4934 139.39C86.8258 139.39 84.0106 138.246 81.2509 136.303H81.0814V142.846H71.0609C62.6883 142.846 55.9023 149.631 55.9023 158.003V164.878H123.083V158.003C123.083 149.631 116.297 142.845 107.926 142.845Z" fill="#FFD15C"/>
<path d="M107.926 142.84H105.53L105.591 142.885L95.175 156.701L89.7988 152.651L84.4225 156.701L74.0061 142.885L74.0675 142.84H71.0595C62.6883 142.84 55.9023 149.626 55.9023 157.998V164.878H123.082V157.998C123.083 149.626 116.298 142.84 107.926 142.84Z" fill="#FF504C"/>
<path fill-rule="evenodd" clip-rule="evenodd" d="M63.4635 99.3047C60.1706 99.3047 57.5 101.975 57.5 105.27C57.5 108.564 60.1706 111.233 63.4635 111.233C66.7579 111.233 69.4285 108.564 69.4285 105.27C69.4285 101.975 66.7579 99.3047 63.4635 99.3047Z" fill="#FFD15C"/>
<path fill-rule="evenodd" clip-rule="evenodd" d="M115.522 99.3047C112.227 99.3047 109.557 101.975 109.557 105.27C109.557 108.564 112.227 111.233 115.522 111.233C118.816 111.233 121.487 108.564 121.487 105.27C121.487 101.975 118.816 99.3047 115.522 99.3047Z" fill="#FFD15C"/>
<path d="M89.494 75.9326C74.8906 75.9326 63.0527 87.7705 63.0527 102.374C63.0527 116.976 77.6795 139.391 89.494 139.391C101.871 139.391 115.934 116.977 115.934 102.374C115.934 87.7705 104.096 75.9326 89.494 75.9326Z" fill="#FFD15C"/>
<path d="M74.002 142.884L79.4001 138.816L89.8121 152.634L84.414 156.703L74.002 142.884Z" fill="#87796F"/>
<path d="M89.7812 152.64L100.195 138.822L105.593 142.889L95.1779 156.708L89.7812 152.64Z" fill="#87796F"/>
<path d="M111.251 75.5735C105.695 70.4734 97.832 67.29 89.1175 67.29C85.8567 67.29 82.7187 67.7356 79.7793 68.564C82.108 73.2579 84.8604 77.7663 88.6106 81.6889C90.3345 83.4888 92.2439 85.1484 94.2658 86.6897C95.9123 87.9621 97.6347 89.163 99.3864 90.3172C105.354 94.2558 111.797 97.7387 118.568 100.576C119.235 98.4048 119.587 96.1214 119.587 93.7664C119.587 86.7189 116.421 80.3157 111.251 75.5735Z" fill="#1F1F26"/>
<path d="M89.117 67.29C85.8562 67.29 82.7182 67.7356 79.7788 68.564C67.5231 71.9855 58.6523 81.9767 58.6523 93.7664C58.6523 96.2602 59.0483 98.6722 59.7919 100.959C71.8109 97.1265 83.5553 92.5231 94.2639 86.6897C100.303 83.4026 106.008 79.7269 111.25 75.5735C105.694 70.4734 97.8315 67.29 89.117 67.29Z" fill="#1F1F26"/>
<path d="M29.2585 136.657C28.531 145.307 19.5156 146.673 19.5156 146.673C27.2556 147.037 29.184 157.189 29.184 157.189C29.3491 149.952 39.1475 146.567 39.1475 146.567C31.8079 146.127 29.2585 136.657 29.2585 136.657Z" fill="#D7E057"/>
<path d="M13.0264 149.36C12.5122 155.477 6.13672 156.444 6.13672 156.444C11.6108 156.702 12.9739 163.882 12.9739 163.882C13.0907 158.761 20.0228 156.368 20.0228 156.368C14.8307 156.057 13.0264 149.36 13.0264 149.36Z" fill="#D7E057"/>
<path d="M13.0264 129.42C12.5122 135.537 6.13672 136.502 6.13672 136.502C11.6108 136.76 12.9739 143.942 12.9739 143.942C13.0907 138.821 20.0228 136.428 20.0228 136.428C14.8307 136.117 13.0264 129.42 13.0264 129.42Z" fill="#D7E057"/>
<path d="M56.3806 105.266C56.3806 103.313 57.1812 101.534 58.4668 100.254C57.8532 97.7865 57.5318 95.2503 57.5318 92.685C57.5318 89.9253 57.8912 87.2313 58.5574 84.6513C58.423 84.6513 58.2871 84.6367 58.1454 84.6367H56.4025L46.6494 97.5761L46.29 98.048C46.2827 98.0553 46.2754 98.0699 46.2593 98.0772C46.3791 98.8106 46.5369 99.5367 46.7166 100.254C45.4295 101.534 44.6289 103.313 44.6289 105.266C44.6289 107.757 45.9233 109.949 47.8678 111.212V111.287H59.6195V111.212C57.675 109.949 56.3806 107.757 56.3806 105.266Z" fill="#6CA8BF"/>
<path d="M157.381 84.6367H155.638L153.701 87.2021C157.307 89.7383 159.663 93.9341 159.663 98.6689V100.898C159.865 100.613 160.194 100.434 160.568 100.434C161.181 100.434 161.69 100.935 161.69 101.556V111.287H171.413V98.6689C171.413 90.9275 165.115 84.6367 157.381 84.6367Z" fill="#B9C239"/>
<path d="M107.925 143.959H106.189L104.252 146.526C107.858 149.068 110.213 153.265 110.213 158V163.759H121.964V158C121.964 150.258 115.666 143.959 107.925 143.959Z" fill="#D91A16"/>
</g>
</g>
<defs>
<filter id="filter0_d" x="-3.91016" y="0" width="185.82" height="171.6" filterUnits="userSpaceOnUse" color-interpolation-filters="sRGB">
<feFlood flood-opacity="0" result="BackgroundImageFix"/>
<feColorMatrix in="SourceAlpha" type="matrix" values="0 0 0 0 0 0 0 0 0 0 0 0 0 0 0 0 0 0 127 0"/>
<feOffset dy="4"/>
<feGaussianBlur stdDeviation="2"/>
<feColorMatrix type="matrix" values="0 0 0 0 0 0 0 0 0 0 0 0 0 0 0 0 0 0 0.25 0"/>
<feBlend mode="normal" in2="BackgroundImageFix" result="effect1_dropShadow"/>
<feBlend mode="normal" in="SourceGraphic" in2="effect1_dropShadow" result="shape"/>
</filter>
<clipPath id="clip0">
<rect x="0.0898438" width="177.82" height="163.6" fill="white"/>
</clipPath>
</defs>
</svg>
